<svg width="26" height="26" viewBox="0 0 26 26" fill="none" xmlns="http://www.w3.org/2000/svg">
<path d="M12.9111 0.860596C6.10586 0.860596 0.569336 6.39712 0.569336 13.2024V18.3156C0.569336 19.5794 1.67639 20.6074 3.03769 20.6074H4.27187C4.59919 20.6074 4.91311 20.4774 5.14456 20.246C5.37602 20.0145 5.50605 19.7006 5.50605 19.3733V13.0259C5.50605 12.6986 5.37602 12.3846 5.14456 12.1532C4.91311 11.9217 4.59919 11.7917 4.27187 11.7917H3.15123C3.83744 7.01544 7.94725 3.32895 12.9111 3.32895C17.875 3.32895 21.9848 7.01544 22.671 11.7917H21.5504C21.223 11.7917 20.9091 11.9217 20.6777 12.1532C20.4462 12.3846 20.3162 12.6986 20.3162 13.0259V20.6074C20.3162 21.9687 19.2091 23.0758 17.8478 23.0758H15.3795V21.8416H10.4428V25.5441H17.8478C20.5704 25.5441 22.7845 23.33 22.7845 20.6074C24.1458 20.6074 25.2529 19.5794 25.2529 18.3156V13.2024C25.2529 6.39712 19.7164 0.860596 12.9111 0.860596Z" fill="white"/>
</svg>
