<svg width="26" height="28" viewBox="0 0 26 28" fill="none" xmlns="http://www.w3.org/2000/svg">
<path d="M15.82 25.1165L13 27.9365L10.18 25.1165C4.6375 23.8365 0.5 18.8665 0.5 12.9365C0.5 6.03652 6.1 0.436523 13 0.436523C19.9 0.436523 25.5 6.03652 25.5 12.9365C25.5 18.8665 21.3625 23.8365 15.82 25.1165ZM5.52875 17.2065C7.36375 19.944 10.1187 21.6865 13.2 21.6865C16.28 21.6865 19.0362 19.9453 20.87 17.2065C18.7897 15.2623 16.0474 14.1825 13.2 14.1865C10.3521 14.1822 7.60939 15.262 5.52875 17.2065ZM13 11.6865C13.9946 11.6865 14.9484 11.2914 15.6517 10.5882C16.3549 9.88491 16.75 8.93109 16.75 7.93652C16.75 6.94196 16.3549 5.98813 15.6517 5.28487C14.9484 4.58161 13.9946 4.18652 13 4.18652C12.0054 4.18652 11.0516 4.58161 10.3483 5.28487C9.64509 5.98813 9.25 6.94196 9.25 7.93652C9.25 8.93109 9.64509 9.88491 10.3483 10.5882C11.0516 11.2914 12.0054 11.6865 13 11.6865Z" fill="white"/>
</svg>
